<?xml version="1.0" encoding="utf-8"?>
<!-- Generator: Adobe Illustrator 24.1.1, SVG Export Plug-In . SVG Version: 6.00 Build 0)  -->
<svg version="1.1" id="Layer_1" xmlns="http://www.w3.org/2000/svg" xmlns:xlink="http://www.w3.org/1999/xlink" x="0px" y="0px"
	 viewBox="0 0 512 512" style="enable-background:new 0 0 512 512;" xml:space="preserve">
<style type="text/css">
	.st0{fill:#454242;}
</style>
<g>
	<path class="st0" d="M145.2,0c9.9,0,17.9,8,17.9,17.9v33.5h192.4V18.1c0-9.9,8-17.9,17.9-17.9c9.9,0,17.9,8,17.9,17.9v33.3h69.4
		c28.3,0,51.2,22.9,51.2,51.2v358.2c0,28.3-22.9,51.2-51.2,51.2H51.2C22.9,512,0,489.1,0,460.8V102.6c0-28.3,22.9-51.2,51.2-51.2
		h76.1V17.9C127.3,8,135.3,0,145.2,0z M35.8,198.2v262.6c0,8.5,6.9,15.3,15.4,15.3h409.6c8.5,0,15.4-6.9,15.4-15.3V198.6L35.8,198.2
		z M170.7,374.2v42.7H128v-42.7H170.7z M277.3,374.2v42.7h-42.7v-42.7H277.3z M384,374.2v42.7h-42.7v-42.7H384z M170.7,272.4v42.7
		H128v-42.7H170.7z M277.3,272.4v42.7h-42.7v-42.7H277.3z M384,272.4v42.7h-42.7v-42.7H384z M127.3,87.3H51.2
		c-8.5,0-15.4,6.9-15.4,15.3v59.8l440.3,0.4v-60.1c0-8.5-6.9-15.3-15.4-15.3h-69.4V111c0,9.9-8,17.9-17.9,17.9
		c-9.9,0-17.9-8-17.9-17.9V87.3H163.1v23.6c0,9.9-8,17.9-17.9,17.9c-9.9,0-17.9-8-17.9-17.9V87.3z"/>
</g>
</svg>
